<svg width="204" height="46" viewBox="0 0 204 46" fill="none" xmlns="http://www.w3.org/2000/svg">
<path d="M172.837 2.67029e-05H166.212V22.7766H172.837V2.67029e-05Z" fill="#6E83F5"/>
<path d="M172.837 22.7766H166.212V45.5531H172.837V22.7766Z" fill="#6E83F5"/>
<path d="M196.235 2.67029e-05H189.609V22.7766H196.235V2.67029e-05Z" fill="#33E2BD"/>
<path d="M158.447 8.07547V14.7012L178.48 14.7012V8.07547H158.447Z" fill="#BD6BEE"/>
<path d="M181.223 8.07588V14.7016L204 14.7016V8.07588L181.223 8.07588Z" fill="#33E2BD"/>
<path d="M196.235 25.498H189.609V45.5309H196.235V25.498Z" fill="#BD6BEE"/>
<path d="M158.447 30.8524V37.4781H181.223V30.8524H158.447Z" fill="#6E83F5"/>
<path d="M181.223 30.8524V37.4781H204V30.8524H181.223Z" fill="#6E83F5"/>
<path d="M126.32 31.6923V28.5006H128.867C129.417 28.5006 129.896 28.5506 130.306 28.6505C129.776 28.161 129.512 27.5067 129.512 26.6875C129.512 25.1591 130.031 23.9253 131.07 22.9863C132.139 22.0173 133.582 21.5328 135.401 21.5328C137.349 21.5328 138.807 22.1422 139.776 23.3609C140.625 24.4398 141.05 25.9183 141.05 27.7964V28.5006H144.152V28.126C144.152 24.9293 143.467 22.5767 142.099 21.0683C140.7 19.5399 138.487 18.7756 135.461 18.7756C133.333 18.7756 131.145 19.1453 128.897 19.8845L128.523 16.9925C130.99 16.1933 133.468 15.7937 135.955 15.7937C143.997 15.7937 148.018 19.9994 148.018 28.4107V31.6923H126.32ZM137.738 27.7364C137.738 25.2989 136.869 24.0802 135.131 24.0802C133.592 24.0802 132.823 24.7845 132.823 26.193C132.823 27.8113 133.787 28.6205 135.715 28.6205H137.738V27.7364Z" fill="white"/>
<path d="M117.629 28.5006H126.665V31.6923H117.629V28.5006Z" fill="white"/>
<path d="M108.938 28.5006H117.974V31.6923H108.938V28.5006Z" fill="white"/>
<path d="M102.285 10.0546H106.331V28.5006H109.402V31.6923H102.285V10.0546Z" fill="white"/>
<path d="M72.1357 38.7501C66.8612 38.7501 64.2239 35.8431 64.2239 30.0291C64.2239 28.151 64.4686 26.3229 64.9581 24.5447L69.1388 23.7805C68.5594 25.8184 68.2697 27.7814 68.2697 29.6694C68.2697 33.6154 69.6733 35.5883 72.4804 35.5883C75.0377 35.5883 76.3164 33.6553 76.3164 29.7893V19.1053H80.3623V24.7845C80.3623 26.223 80.5371 27.2419 80.8867 27.8413C81.2364 28.4407 81.8208 28.7404 82.6399 28.7404C84.1883 28.7404 84.9625 27.4317 84.9625 24.8144V17.8766H88.8285V25.5786C88.8285 26.7674 89.0883 27.5566 89.6077 27.9462C90.0873 28.3158 91.0463 28.5006 92.4848 28.5006H93.279C93.4288 27.0721 93.5037 25.8434 93.5037 24.8144C93.5037 21.9873 93.204 19.2452 92.6047 16.5879L96.5756 16.0484C97.2249 18.7956 97.5496 21.6277 97.5496 24.5447C97.5496 26.8923 97.3947 29.2748 97.085 31.6923H92.0203C88.8935 31.6923 86.9954 30.9881 86.3261 29.5795C85.6868 31.1079 84.4081 31.8722 82.4901 31.8722C81.3912 31.8722 80.622 31.5575 80.1824 30.9281C80.1924 33.6054 79.3983 35.6233 77.7999 36.9819C76.4113 38.1607 74.5233 38.7501 72.1357 38.7501ZM86.7757 10.5791C86.2562 10.5791 85.8167 10.3893 85.457 10.0097C85.0874 9.64005 84.9026 9.18551 84.9026 8.64607C84.9026 8.10662 85.0874 7.65209 85.457 7.28247C85.8167 6.90286 86.2562 6.71306 86.7757 6.71306C87.3151 6.71306 87.7696 6.90286 88.1393 7.28247C88.4989 7.65209 88.6787 8.10662 88.6787 8.64607C88.6787 9.18551 88.4989 9.64005 88.1393 10.0097C87.7696 10.3893 87.3151 10.5791 86.7757 10.5791ZM89.353 14.9396C88.7736 14.9396 88.2891 14.7348 87.8995 14.3252C87.4999 13.9256 87.3001 13.4361 87.3001 12.8567C87.3001 12.2773 87.4999 11.7828 87.8995 11.3733C88.2891 10.9637 88.7736 10.7589 89.353 10.7589C89.9224 10.7589 90.4019 10.9637 90.7915 11.3733C91.1811 11.7728 91.3759 12.2673 91.3759 12.8567C91.3759 13.4261 91.1811 13.9156 90.7915 14.3252C90.4019 14.7348 89.9224 14.9396 89.353 14.9396ZM84.2583 14.9396C83.6988 14.9396 83.2193 14.7348 82.8197 14.3252C82.4301 13.9256 82.2353 13.4361 82.2353 12.8567C82.2353 12.2773 82.4301 11.7828 82.8197 11.3733C83.2193 10.9637 83.6988 10.7589 84.2583 10.7589C84.8277 10.7589 85.3072 10.9637 85.6968 11.3733C86.0964 11.7728 86.2962 12.2673 86.2962 12.8567C86.2962 13.4261 86.0964 13.9156 85.6968 14.3252C85.3072 14.7348 84.8277 14.9396 84.2583 14.9396Z" fill="white"/>
<path d="M46.1825 28.5006H50.483V17.2622H54.5289V31.6923H46.1825V28.5006ZM50.2283 38.4204C49.6489 38.4204 49.1494 38.2156 48.7298 37.8061C48.3203 37.3965 48.1155 36.892 48.1155 36.2926C48.1155 35.7132 48.3203 35.2137 48.7298 34.7942C49.1494 34.3846 49.6489 34.1798 50.2283 34.1798C50.8177 34.1798 51.3172 34.3846 51.7268 34.7942C52.1463 35.2037 52.3561 35.7032 52.3561 36.2926C52.3561 36.882 52.1463 37.3815 51.7268 37.7911C51.3172 38.2106 50.8177 38.4204 50.2283 38.4204Z" fill="white"/>
<path d="M35.7232 28.5006H39.5293V10.0546H43.5751V28.5006H46.647V31.6923H35.7232V28.5006Z" fill="white"/>
<path d="M27.7964 31.6923C24.6696 31.6923 22.7716 30.9881 22.1022 29.5795C21.4629 31.1079 20.1842 31.8722 18.2662 31.8722C17.1673 31.8722 16.3981 31.5575 15.9586 30.9281C15.9686 33.6054 15.1744 35.6233 13.576 36.9819C12.1875 38.1607 10.2994 38.7501 7.91186 38.7501C2.63729 38.7501 0 35.8431 0 30.0291C0 28.151 0.244748 26.3229 0.734244 24.5447L4.91494 23.7805C4.33554 25.8184 4.04584 27.7814 4.04584 29.6694C4.04584 33.6154 5.44939 35.5883 8.2565 35.5883C10.8139 35.5883 12.0926 33.6553 12.0926 29.7893V19.1053H16.1384V24.7845C16.1384 26.223 16.3132 27.2419 16.6628 27.8413C17.0125 28.4407 17.5969 28.7404 18.416 28.7404C19.9644 28.7404 20.7387 27.4317 20.7387 24.8144V17.8766H24.6047V25.5786C24.6047 26.7674 24.8644 27.5566 25.3839 27.9462C25.8634 28.3158 26.8224 28.5006 28.2609 28.5006H29.0551C29.2049 27.0721 29.2799 25.8434 29.2799 24.8144C29.2799 21.9873 28.9802 19.2452 28.3808 16.5879L32.3517 16.0485C33.001 18.7956 33.3257 21.6277 33.3257 24.5447C33.3257 25.6835 33.2757 27.0022 33.1758 28.5006H36.1877V31.6923H27.7964Z" fill="white"/>
</svg>
