<svg width="40" height="40" viewBox="0 0 40 40" fill="none" xmlns="http://www.w3.org/2000/svg">
<g clip-path="url(#clip0_12_1328)">
<path d="M28.8449 12.4855C21.7052 8.14164 25.0533 2.01063 25.1969 1.75578C25.2994 1.57761 25.3532 1.37563 25.3529 1.1701C25.3526 0.964579 25.2983 0.762744 25.1953 0.584857C25.0924 0.406969 24.9445 0.259287 24.7664 0.156631C24.5884 0.0539749 24.3865 -4.24453e-05 24.1809 2.50244e-08C20.5057 2.50244e-08 17.6277 1.04422 15.627 3.10375C12.2084 6.62289 12.3669 12.1 12.4346 14.4389C12.4421 14.698 12.4486 14.9219 12.4486 15.0881C12.4486 16.8247 12.7272 18.4279 12.973 19.8423C13.1315 20.7538 13.2683 21.541 13.2926 22.1599C13.3186 22.8224 13.1977 22.9743 13.1925 22.9804C13.1752 23.0009 13.0315 23.0773 12.6428 23.0773C12.1995 23.0773 11.8727 22.9325 11.5832 22.6079C10.4523 21.3398 10.3741 17.8771 10.5903 15.9933C10.6094 15.8291 10.5935 15.6627 10.5437 15.5051C10.494 15.3474 10.4114 15.2021 10.3015 15.0787C10.1915 14.9552 10.0567 14.8564 9.90589 14.7887C9.75507 14.7211 9.59163 14.6861 9.42632 14.6861C6.38374 14.6861 4.11023 19.6617 4.11023 24.1105C4.11023 26.2018 4.53085 28.2505 5.36046 30.1995C6.16249 32.0837 7.30617 33.7844 8.75984 35.2539C11.7873 38.3145 15.779 40 19.9996 40C24.2372 40 28.2278 38.3383 31.2364 35.3211C34.2372 32.3117 35.8898 28.3302 35.8898 24.1103C35.8897 18.7258 31.6767 14.2082 28.8449 12.4855ZM19.9996 37.6562C12.6572 37.6562 6.45406 31.453 6.45406 24.1103C6.45406 22.3246 6.88015 20.4502 7.62304 18.9677C7.79656 18.6214 7.9746 18.3243 8.15031 18.074C8.16992 20.0073 8.47617 22.6429 9.83203 24.1655C10.5634 24.9869 11.5354 25.421 12.6429 25.421C13.6775 25.421 14.4659 25.1074 14.9861 24.489C15.9586 23.3329 15.6601 21.6154 15.2823 19.4409C15.0527 18.1198 14.7924 16.6224 14.7924 15.088C14.7924 14.8878 14.7855 14.6484 14.7775 14.3709C14.7134 12.1555 14.5798 7.54539 17.3082 4.73688C18.533 3.47602 20.243 2.70867 22.4062 2.44609C22.162 3.25703 21.9515 4.28648 21.9434 5.43914C21.9254 7.97883 22.8968 11.6102 27.6268 14.4878C29.9153 15.8801 33.546 19.7236 33.546 24.1104C33.5459 31.5796 27.4691 37.6562 19.9996 37.6562Z" fill="white"/>
</g>
<defs>
<clipPath id="clip0_12_1328">
<rect width="40" height="40" fill="white"/>
</clipPath>
</defs>
</svg>
