<svg width="89" height="80" viewBox="0 0 89 80" fill="none" xmlns="http://www.w3.org/2000/svg">
<g clip-path="url(#clip0_13_1336)">
<path d="M31.1063 30.9038C31.1063 30.9038 24.2444 25.5825 28.8058 14.8958C33.5416 3.80034 25.0149 -0.568036 18.7402 1.22339C10.8549 3.4744 13.8334 11.3997 14.3919 12.6103C15.5619 15.146 19.9942 16.2668 20.6697 14.3321C21.6134 11.6321 18.5802 14.625 17.8339 12.1372C17.0342 9.4732 17.9858 7.4358 21.7283 7.35298C23.185 7.321 25.1682 9.35128 23.2693 17.0971C21.0229 26.2596 16.2278 39.3125 28.078 44.7565C28.0784 44.7558 31.8341 43.4549 31.1063 30.9038Z" fill="#FF7FB6"/>
<path d="M25.7145 22.1304C29.6274 8.74202 26.9001 5.78012 24.8846 3.76584C22.869 1.75155 15.28 2.34407 15.28 9.57127C15.28 13.801 16.8488 14.9854 18.15 15.242C18.3097 15.2701 18.4666 15.2893 18.6199 15.2999C19.3246 15.3337 19.8607 15.14 19.8607 15.14C20.2438 14.9846 20.5334 14.7213 20.6692 14.3321C21.613 11.6321 18.5797 14.6249 17.8334 12.1372C17.0337 9.47316 17.9853 7.43577 21.7279 7.35295C23.1846 7.32096 25.1677 9.35125 23.2689 17.097C21.0225 26.2596 16.2273 39.3125 28.0776 44.7564C28.0776 44.7564 30.547 43.8998 31.093 36.8838C27.7097 35.6959 22.8011 32.0995 25.7145 22.1304Z" fill="#F272A8"/>
<path opacity="0.45" d="M23.8477 20.9462C25.2773 15.7678 27.0453 11.7591 26.474 9.08723C25.7227 5.57368 22.6752 4.37087 19.1368 5.8591C14.092 7.98109 16.4081 15.7582 20.7479 13.2203C20.8379 13.1677 20.7479 13.6561 20.8383 13.6813C21.0257 12.1796 18.5051 14.3748 17.8338 12.1366C17.0341 9.47252 17.9857 7.43513 21.7283 7.35231C23.185 7.32032 25.1685 9.35061 23.2693 17.0964C22.6279 19.7121 21.7802 22.6452 21.1702 25.6274C20.8023 29.1484 20.4971 32.9224 20.792 36.1687C21.5913 39.684 23.6933 42.7412 28.078 44.7555C28.078 44.7555 28.5721 44.5809 29.1668 43.7652C29.3105 43.1602 29.4045 42.2649 29.4045 40.9469C29.4041 40.9469 19.7369 35.8339 23.8477 20.9462Z" fill="#780074"/>
<path d="M21.7295 63.561C8.67512 64.6614 10.3584 45.8102 14.1785 37.0546C17.0933 30.3755 10.6007 32.458 10.6007 32.458C1.67483 36.5044 8.83128 44.5192 8.83128 49.3131C8.83128 51.424 6.31454 49.9415 6.31454 49.9415C-2.65042 44.5981 -3.98759 22.125 15.1219 22.125C29.49 22.125 26.5641 35.6794 20.4699 41.7695C17.0805 45.1562 25.3838 48.8261 28.0777 44.0013C29.5618 41.3433 31.3152 36.1841 30.3786 28.8826C27.8661 9.30382 42.4849 3.20089 44.8483 2.00909C42.6749 3.41024 61.6036 -7.1901 72.6873 9.70974C86.2589 30.4043 61.0814 36.2044 63.2371 45.0375C69.2272 69.5861 34.3111 61.729 23.4587 60.6282" fill="#F272A8"/>
<path opacity="0.45" d="M16.7732 52.5343C14.3052 47.1995 14.202 42.1199 18.9001 36.2448C23.5853 30.3853 16.4865 26.966 12.8787 27.7789C-0.66974 30.8304 2.44035 42.4299 5.31709 46.5373C7.63855 49.8515 8.3781 50.2243 8.61394 50.1291C8.74734 49.9524 8.83094 49.6922 8.83094 49.313C8.83094 44.5191 1.67448 36.5043 10.6003 32.4579C10.6003 32.4579 17.093 30.3754 14.1785 37.0545C10.3581 45.8101 8.67513 64.6613 21.7295 63.5609L23.4583 62.9854C24.926 63.134 25.9103 61.0497 28.1279 61.3486C29.5529 56.8508 31.3369 55.541 31.3369 55.541C31.3369 55.541 19.7566 58.9828 16.7732 52.5343Z" fill="#780074"/>
<path d="M64.8232 61.2568C78.0348 59.6854 87.7322 66.2505 78.0348 68.0145C78.0348 68.0145 74.8101 70.4507 80.4726 70.4507C88.4155 70.4507 101.942 52.9278 59.6332 51.0422" fill="#FF7FB6"/>
<path opacity="0.45" d="M69.9346 56.9787C69.9346 56.9787 64.8548 55.5577 60.9614 56.4569L64.8232 61.2568C78.0348 59.6854 87.7321 66.2504 78.0348 68.0145C81.7314 68.0145 87.7709 66.1925 83.5392 61.9642C79.3075 57.7358 69.9346 56.9787 69.9346 56.9787Z" fill="#780074"/>
<path d="M58.453 49.3916C58.453 54.1752 65.9239 61.257 65.9239 61.257C79.922 75.2444 60.5418 81.6359 55.7004 79.644C53.0264 78.5443 55.7004 77.4438 55.7004 77.4438C67.0839 75.8472 63.4032 67.6479 53.8129 65.5003C44.6907 63.4572 46.5782 54.4993 46.5782 54.4993C46.5782 54.4993 46.2637 49.7848 51.611 47.5842C56.9586 45.384 58.453 47.4684 58.453 49.3916Z" fill="#FF7FB6"/>
<path opacity="0.45" d="M59.2792 52.5634C56.0098 51.6724 54.149 52.5155 56.5042 55.8694C56.5042 55.8694 55.9329 58.2168 64.0982 63.6948C69.3811 67.3861 73.0248 77.9157 57.5999 79.9918H57.6006C64.1701 80.2428 78.4862 73.8089 65.9242 61.2572C65.9242 61.2568 61.2211 56.7957 59.2792 52.5634Z" fill="#780074"/>
<path opacity="0.23" d="M61.7172 12.8134C64.5185 12.8134 66.7894 11.1774 66.7894 9.15941C66.7894 7.1414 64.5185 5.50547 61.7172 5.50547C58.9158 5.50547 56.6449 7.1414 56.6449 9.15941C56.6449 11.1774 58.9158 12.8134 61.7172 12.8134Z" fill="#C71870"/>
<path opacity="0.16" d="M47.3497 10.9795C48.7644 10.5957 49.6867 9.45854 49.4099 8.43957C49.133 7.4206 47.7617 6.90569 46.347 7.28947C44.9323 7.67326 44.01 8.81041 44.2868 9.82938C44.5637 10.8483 45.935 11.3633 47.3497 10.9795Z" fill="#C71870"/>
<path opacity="0.26" d="M70.6778 19.2961C72.6658 19.2961 74.2774 18.1352 74.2774 16.7031C74.2774 15.2711 72.6658 14.1102 70.6778 14.1102C68.6898 14.1102 67.0782 15.2711 67.0782 16.7031C67.0782 18.1352 68.6898 19.2961 70.6778 19.2961Z" fill="#C71870"/>
<path opacity="0.2" d="M57.4974 19.7566C58.2503 19.5531 58.7416 18.9485 58.5948 18.4062C58.4479 17.8638 57.7186 17.5891 56.9658 17.7925C56.213 17.996 55.7217 18.6006 55.8685 19.143C56.0153 19.6853 56.7446 19.96 57.4974 19.7566Z" fill="#C71870"/>
<path d="M71.6689 21.0823C71.6689 31.758 62.0754 34.2259 53.8895 40.4127C46.6384 45.8925 55.0008 55.1553 44.2885 60.129C43.0595 60.6995 29.9243 60.8769 26.4137 55.1553C24.9264 52.7312 33.4983 54.0108 33.4983 39.9026C33.4983 32.5787 32.01 25.6554 32.9583 21.0827C35.1126 10.6935 44.0704 1.75234 53.8895 1.75234C63.7089 1.75199 71.6689 10.4063 71.6689 21.0823Z" fill="#FF7FB6"/>
<path opacity="0.16" d="M39.0109 32.7392C42.2354 34.3754 46.3602 32.7293 48.2239 29.0624C50.0876 25.3956 48.9844 21.0966 45.7599 19.4603C42.5355 17.8241 38.4107 19.4702 36.547 23.1371C34.6833 26.8039 35.7865 31.103 39.0109 32.7392Z" fill="#8F0000"/>
<path d="M39.0451 31.1168C42.3742 32.8061 46.499 31.3698 48.2581 27.9087C50.0172 24.4476 48.7445 20.2724 45.4154 18.583C42.0863 16.8937 37.9615 18.33 36.2024 21.7911C34.4433 25.2522 35.716 29.4275 39.0451 31.1168Z" fill="white" stroke="#B2B2B2" stroke-width="1.00044"/>
<path d="M45.3987 18.5704C42.072 16.8821 37.9484 18.317 36.1901 21.7765C34.4318 25.2357 35.7035 29.4096 39.0306 31.0983C42.358 32.787 46.4815 31.3517 48.2399 27.8922C49.9982 24.4331 48.7265 20.2595 45.3987 18.5704ZM39.3568 28.6024C36.739 27.2738 35.7387 23.9902 37.1217 21.2693C38.5055 18.548 41.7494 17.4188 44.3668 18.7471C46.9838 20.0754 47.9848 23.3593 46.6011 26.0805C45.218 28.8014 41.9745 29.931 39.3568 28.6024Z" fill="#F7F7F7"/>
<path opacity="0.16" d="M51.1879 36.1666C54.8585 38.0293 59.554 36.1554 61.6755 31.9813C63.797 27.8072 62.5412 22.9134 58.8705 21.0507C55.1999 19.1881 50.5044 21.0619 48.3829 25.2361C46.2614 29.4102 47.5172 34.304 51.1879 36.1666Z" fill="#8F0000"/>
<path d="M51.2266 34.3196C55.0162 36.2426 59.7117 34.6075 61.7142 30.6675C63.7167 26.7275 62.2679 21.9745 58.4783 20.0515C54.6887 18.1285 49.9932 19.7635 47.9907 23.7036C45.9882 27.6436 47.4369 32.3965 51.2266 34.3196Z" fill="white" stroke="#B2B2B2" stroke-width="1.00044"/>
<path d="M58.4572 20.0366C54.6701 18.1144 49.976 19.748 47.9743 23.6859C45.9727 27.6239 47.4205 32.375 51.2079 34.2973C54.9956 36.2195 59.6897 34.5859 61.6914 30.6476C63.693 26.7104 62.2449 21.9592 58.4572 20.0366ZM51.5789 31.4562C48.599 29.9438 47.4603 26.206 49.0347 23.1087C50.6099 20.0106 54.3027 18.725 57.2825 20.2374C60.2617 21.7495 61.4011 25.4876 59.826 28.5853C58.2515 31.683 54.5588 32.9686 51.5789 31.4562Z" fill="#F7F7F7"/>
<path d="M53.345 28.3265C54.787 28.3265 55.956 27.1584 55.956 25.7175C55.956 24.2767 54.787 23.1086 53.345 23.1086C51.903 23.1086 50.734 24.2767 50.734 25.7175C50.734 27.1584 51.903 28.3265 53.345 28.3265Z" fill="black"/>
<path d="M39.744 26.3344C40.9721 26.3344 41.9676 25.3396 41.9676 24.1125C41.9676 22.8854 40.9721 21.8906 39.744 21.8906C38.5159 21.8906 37.5204 22.8854 37.5204 24.1125C37.5204 25.3396 38.5159 26.3344 39.744 26.3344Z" fill="black"/>
<path d="M52.2811 25.7198C52.7646 25.7198 53.1565 25.3282 53.1565 24.8451C53.1565 24.362 52.7646 23.9703 52.2811 23.9703C51.7976 23.9703 51.4056 24.362 51.4056 24.8451C51.4056 25.3282 51.7976 25.7198 52.2811 25.7198Z" fill="white"/>
<path d="M39.1375 24.1129C39.4723 24.1129 39.7437 23.8417 39.7437 23.5072C39.7437 23.1727 39.4723 22.9016 39.1375 22.9016C38.8028 22.9016 38.5314 23.1727 38.5314 23.5072C38.5314 23.8417 38.8028 24.1129 39.1375 24.1129Z" fill="white"/>
<path d="M61.392 77.4437C65.1996 75.8471 69.0948 67.6477 59.5045 65.5001C50.3823 63.4571 52.2698 54.4992 52.2698 54.4992C52.2698 54.4992 51.9553 49.7846 57.3026 47.5841C57.4452 47.5255 57.5836 47.4714 57.7209 47.4185C56.8216 46.5135 54.9829 46.1965 51.611 47.5841C46.2637 49.7846 46.5782 54.4992 46.5782 54.4992C46.5782 54.4992 44.6907 63.4571 53.8129 65.5001C63.4032 67.6477 67.0839 75.8467 55.7004 77.4437C55.7004 77.4437 53.0264 78.5445 55.7004 79.6439C56.9031 80.1387 59.0022 80.1156 61.2646 79.5881C58.8119 78.5075 61.392 77.4437 61.392 77.4437Z" fill="#F272A8"/>
<path d="M74.121 52.6297C72.008 54.6468 71.2471 56.5758 73.1676 57.2064C73.1676 57.2064 84.289 55.7224 85.8321 61.2285C87.3752 66.7347 81.1469 68.0143 78.035 68.0143C78.035 68.0143 74.8104 70.4505 80.4728 70.4505C87.3194 70.4505 98.3123 57.4313 74.121 52.6297Z" fill="#F272A8"/>
<path d="M49.4094 52.4557C49.4094 52.4557 73.6306 67.3857 80.5512 49.1555C80.5512 49.1555 82.7528 44.2841 78.9782 36.5835C75.204 28.8828 82.1239 24.9538 84.483 28.8828C86.8425 32.8119 86.9212 23.1467 80.2364 21.3393C73.552 19.5319 71.428 30.4546 73.552 37.9982C75.676 45.5417 62.4644 46.9556 58.8467 38.312C55.2286 29.6687 45.0062 34.383 43.8263 39.6481C42.6467 44.9129 44.0611 49.3119 49.4094 52.4557Z" fill="#FF7FB6"/>
<path d="M85.4879 26.3909C84.6633 24.8419 83.4439 23.7891 81.6524 23.7891C70.2397 23.7891 75.2789 38.2175 75.2789 39.7839C75.2789 59.511 55.892 46.8928 52.8683 40.1394C49.9368 33.5914 45.1249 37.25 44.835 37.4785C44.3484 38.1667 43.9941 38.9007 43.8269 39.6478C42.6473 44.913 44.0617 49.3119 49.41 52.4558C49.41 52.4558 73.6312 67.3858 80.5518 49.1555C80.5518 49.1555 82.7534 44.2842 78.9788 36.5835C75.2046 28.8829 82.1245 24.9538 84.4836 28.8829C85.8165 31.103 86.4206 28.9817 85.4879 26.3909Z" fill="#F272A8"/>
<path opacity="0.28" d="M14.786 33.3366C15.8429 28.8242 10.6002 30.5033 10.6002 30.5033C6.67443 32.283 5.86017 34.8305 6.17926 37.5336C6.4489 35.5801 7.63879 33.8008 10.6002 32.4583C10.6002 32.4583 14.0397 31.3575 14.786 33.3366ZM29.5539 55.9633C29.0893 56.8153 28.5899 57.9346 28.1274 59.3937C25.9098 59.0947 24.9256 61.179 23.4578 61.0305L21.729 61.6059C14.3332 62.2294 11.6688 56.4488 11.4422 49.7288C11.201 57.2361 13.6239 64.244 21.729 63.5609L23.4578 62.9854C24.9256 63.134 25.9098 61.0497 28.1274 61.3486C29.5525 56.8508 31.3364 55.541 31.3364 55.541C31.3364 55.541 30.642 55.7468 29.5539 55.9633Z" fill="#780074"/>
<path opacity="0.45" d="M80.5513 49.1555C80.5513 49.1555 82.7528 44.2841 78.9782 36.5835C75.204 28.8828 82.1239 24.9538 84.4831 28.8828C84.9057 29.5873 85.2539 29.8493 85.5044 29.8031C84.6819 26.1239 81.6522 25.6608 81.6522 25.6608C73.6306 25.6608 75.754 34.619 77.1694 38.6266C78.5848 42.6338 78.1128 44.9911 78.1128 44.9911C74.5915 59.5703 55.106 53.4773 50.0383 44.0648C47.0936 38.5946 44.9173 39.5152 43.9789 41.398C43.4158 42.5276 43.5264 44.2308 43.5464 44.4711C43.9786 47.6267 45.7913 50.3291 49.409 52.4558C49.4094 52.4558 73.6306 67.3857 80.5513 49.1555Z" fill="#780074"/>
<path d="M7.46104 49.3131C7.46104 49.3131 -5.69364 36.3476 7.46104 27.58C20.6157 18.8123 27.8999 30.9549 21.2934 40.8792L21.293 40.8795C26.7978 34.4553 28.8262 22.125 15.1219 22.125C-3.98758 22.125 -2.65042 44.5982 6.31454 49.9415C6.31454 49.9415 6.99539 50.3418 7.6485 50.4299C7.39594 49.7322 7.30274 49.3131 7.46104 49.3131Z" fill="#FF7FB6"/>
<path d="M36.5351 52.0064C36.5351 52.0064 32.0452 50.8463 26.8996 53.7655C17.7952 58.9304 20.3212 71.4477 30.698 75.1507C38.9217 78.0848 50.0555 70.0614 46.298 60.6373C45.314 58.1694 43.3088 54.2283 39.9632 53.1175C39.9632 53.1175 34.7746 50.5257 30.698 54.599C30.698 54.599 28.8451 56.6353 34.0333 56.6353C39.2215 56.6353 41.2602 65.708 37.1836 67.3743C33.107 69.041 30.883 60.8943 39.2215 60.8943" fill="#FF7FB6"/>
<path opacity="0.45" d="M36.7246 51.8508C38.6003 51.967 39.9638 52.7618 39.9638 52.7618C43.3094 55.0181 45.3146 58.1691 46.2985 60.6369C50.056 70.0611 38.9222 78.0845 30.6986 75.1504C23.8406 72.7035 20.3534 66.8597 21.4501 61.3866C21.4501 61.3919 20.7316 65.2691 23.296 68.2637C25.8625 71.2607 32.0713 73.3739 37.9251 71.2622C50.7084 66.65 38.198 48.4041 30.6506 55.9458C30.6506 55.9458 30.1497 51.8508 36.7246 51.8508Z" fill="#780074"/>
<path d="M31.1692 57.2026C31.1692 57.2026 25.4776 60.7571 27.7898 65.7332C30.049 70.595 39.8275 70.9525 39.3373 63.0553C39.423 64.9687 38.7657 66.7303 37.1841 67.3764C33.4888 68.8871 31.3161 62.3349 37.1517 61.0954C35.3009 56.3386 31.1692 57.2026 31.1692 57.2026ZM39.2914 62.4877L39.2907 62.487C39.2918 62.4952 39.2925 62.5037 39.2935 62.5119C39.2925 62.5037 39.2925 62.4959 39.2914 62.4877Z" fill="#F272A8"/>
<path d="M58.5647 11.7672C60.0435 11.7672 61.2423 10.5694 61.2423 9.09182C61.2423 7.61423 60.0435 6.4164 58.5647 6.4164C57.086 6.4164 55.8872 7.61423 55.8872 9.09182C55.8872 10.5694 57.086 11.7672 58.5647 11.7672Z" fill="#F272A8"/>
<path d="M44.6981 11.9585C45.2791 11.9585 45.75 11.4879 45.75 10.9074C45.75 10.3269 45.2791 9.85637 44.6981 9.85637C44.1172 9.85637 43.6462 10.3269 43.6462 10.9074C43.6462 11.4879 44.1172 11.9585 44.6981 11.9585Z" fill="#F272A8"/>
<path d="M51.2966 15.9714C51.9304 15.9714 52.4442 15.4581 52.4442 14.8248C52.4442 14.1915 51.9304 13.6781 51.2966 13.6781C50.6628 13.6781 50.149 14.1915 50.149 14.8248C50.149 15.4581 50.6628 15.9714 51.2966 15.9714Z" fill="#F272A8"/>
<path d="M70.5183 19.6026C72.8949 19.6026 74.8215 17.6775 74.8215 15.3028C74.8215 12.9281 72.8949 11.003 70.5183 11.003C68.1417 11.003 66.2151 12.9281 66.2151 15.3028C66.2151 17.6775 68.1417 19.6026 70.5183 19.6026Z" fill="#F272A8"/>
<path d="M31.8372 49.6068C33.8971 49.6068 35.567 47.9383 35.567 45.88C35.567 43.8218 33.8971 42.1532 31.8372 42.1532C29.7773 42.1532 28.1074 43.8218 28.1074 45.88C28.1074 47.9383 29.7773 49.6068 31.8372 49.6068Z" fill="#F272A8"/>
<path d="M33.5097 39.2873C34.566 39.2873 35.4224 38.4316 35.4224 37.3761C35.4224 36.3205 34.566 35.4648 33.5097 35.4648C32.4533 35.4648 31.5969 36.3205 31.5969 37.3761C31.5969 38.4316 32.4533 39.2873 33.5097 39.2873Z" fill="#F272A8"/>
<path d="M36.721 16.3535C37.8609 16.3535 38.7849 15.0734 38.7849 13.4943C38.7849 11.9152 37.8609 10.6352 36.721 10.6352C35.5811 10.6352 34.6571 11.9152 34.6571 13.4943C34.6571 15.0734 35.5811 16.3535 36.721 16.3535Z" fill="#F272A8"/>
<g opacity="0.28">
<path d="M81.6519 25.6609C73.6303 25.6609 75.7536 34.6191 77.169 38.6267C78.3618 42.0038 78.2145 44.2026 78.1387 44.8125C78.2173 44.5644 78.2924 44.3113 78.3589 44.0487C78.3589 44.0487 78.815 41.8844 77.4472 38.2055C76.0784 34.526 74.0262 26.3018 81.7803 26.3018C81.7803 26.3018 84.5236 26.7095 85.4179 29.8061C85.4478 29.8086 85.4766 29.8089 85.504 29.804C84.6819 26.1244 81.6519 25.6609 81.6519 25.6609ZM50.6128 50.9019C47.1153 48.9498 45.363 46.4681 44.9454 43.5713C44.9259 43.3506 44.8195 41.7866 45.3634 40.7498C45.5252 40.4416 45.7259 40.1623 45.9614 39.9383C45.0777 39.8985 44.4019 40.5493 43.9789 41.3981C43.4158 42.5277 43.5264 44.231 43.5464 44.4713C43.9786 47.6269 45.7913 50.3293 49.409 52.4559C49.409 52.4559 73.6303 67.3859 80.5509 49.1556C80.5509 49.1556 80.9906 48.1782 81.1396 46.4113C80.9586 47.36 80.716 47.8718 80.716 47.8718C74.0266 64.6092 50.6128 50.9019 50.6128 50.9019Z" fill="#780074"/>
</g>
<g opacity="0.28">
<path d="M21.4502 61.3873C21.421 61.5324 21.3972 61.6777 21.3744 61.8235C21.3773 61.8697 21.3805 61.9173 21.384 61.9642C21.4111 61.6024 21.4502 61.3888 21.4502 61.3873ZM43.3891 63.4937C43.9675 57.0989 36.4568 49.539 31.0782 54.1324C30.5454 55.0729 30.6506 55.9466 30.6506 55.9466C35.6624 50.9381 42.8605 57.3022 43.3891 63.4937ZM47.0218 63.6963C46.4804 70.9761 37.5734 76.1822 30.6983 73.7293C27.3574 72.5372 24.8193 70.5378 23.2189 68.1692C22.0521 66.7613 21.5921 65.1728 21.4328 63.8865C21.3588 63.4894 21.3068 63.0896 21.2787 62.6883C20.928 67.7615 24.3814 72.8973 30.698 75.1511C38.0134 77.7608 47.6304 71.7005 47.0218 63.6963Z" fill="#780074"/>
</g>
<path opacity="0.28" d="M65.8185 61.1551C73.8493 60.4354 80.3918 62.6825 81.7204 64.8677C82.3557 62.3974 74.2026 59.1291 63.9239 60.1389L64.8232 61.2571C64.8232 61.2571 75.1925 70.7649 65.5638 77.3089C65.4937 77.3583 65.4208 77.4066 65.3482 77.455C65.3354 77.4635 65.323 77.4724 65.3102 77.4806C65.1547 77.5829 64.995 77.6842 64.8274 77.7827C64.826 77.7834 64.825 77.7845 64.8235 77.7852C63.2356 78.7164 61.087 79.4547 58.2579 79.8958C58.2654 79.9285 58.2711 79.9608 58.2835 79.9943C65.096 79.8062 78.0668 73.3901 65.9241 61.2571C65.9241 61.2571 65.8832 61.2177 65.8185 61.1551Z" fill="#780074"/>
</g>
<defs>
<clipPath id="clip0_13_1336">
<rect width="89" height="80" fill="white"/>
</clipPath>
</defs>
</svg>
