<svg width="80" height="80" viewBox="0 0 80 80" fill="none" xmlns="http://www.w3.org/2000/svg">
<path d="M48.1333 24.1667C47.5 24.1667 46.8667 23.9333 46.3667 23.4333L39.6 16.6667L32.8333 23.4333C31.8667 24.4 30.2667 24.4 29.3 23.4333C28.3333 22.4667 28.3333 20.8667 29.3 19.9L37.8333 11.3667C38.8 10.4 40.4 10.4 41.3667 11.3667L49.9 19.9C50.8667 20.8667 50.8667 22.4667 49.9 23.4333C49.4 23.9333 48.7667 24.1667 48.1333 24.1667Z" fill="white"/>
<path d="M39.6 49.7666C38.2333 49.7666 37.1 48.6333 37.1 47.2666V13.3666C37.1 12 38.2333 10.8666 39.6 10.8666C40.9666 10.8666 42.1 12 42.1 13.3666V47.2666C42.1 48.6666 40.9666 49.7666 39.6 49.7666Z" fill="white"/>
<path d="M40 69.1667C22.8333 69.1667 10.8333 57.1667 10.8333 40C10.8333 38.6333 11.9666 37.5 13.3333 37.5C14.7 37.5 15.8333 38.6333 15.8333 40C15.8333 54.2333 25.7666 64.1667 40 64.1667C54.2333 64.1667 64.1666 54.2333 64.1666 40C64.1666 38.6333 65.3 37.5 66.6666 37.5C68.0333 37.5 69.1666 38.6333 69.1666 40C69.1666 57.1667 57.1666 69.1667 40 69.1667Z" fill="white"/>
</svg>
