<svg width="20" height="20" viewBox="0 0 20 20" fill="none" xmlns="http://www.w3.org/2000/svg">
<path d="M18.2703 8.63131L5.14063 1.13913C4.8638 0.984056 4.54632 0.916943 4.23041 0.946713C3.91451 0.976483 3.61516 1.10173 3.37217 1.30578C3.12919 1.50984 2.95409 1.78304 2.87016 2.08904C2.78623 2.39505 2.79746 2.71935 2.90235 3.01881L5.26016 10.0001L2.90235 16.9813C2.81945 17.2168 2.79421 17.4688 2.82872 17.7161C2.86324 17.9634 2.95651 18.1988 3.10073 18.4026C3.24495 18.6064 3.43591 18.7727 3.65762 18.8875C3.87933 19.0023 4.12532 19.0624 4.375 19.0626C4.6435 19.062 4.90737 18.9926 5.14141 18.861L5.14844 18.8563L18.2734 11.3508C18.5141 11.2146 18.7143 11.017 18.8536 10.7781C18.9928 10.5392 19.0662 10.2676 19.0662 9.99108C19.0662 9.71455 18.9928 9.44297 18.8536 9.20408C18.7143 8.96519 18.5141 8.76754 18.2734 8.63131H18.2703ZM4.93672 16.8173L6.92266 10.9376H11.25C11.4986 10.9376 11.7371 10.8388 11.9129 10.663C12.0887 10.4872 12.1875 10.2487 12.1875 10.0001C12.1875 9.75142 12.0887 9.51297 11.9129 9.33715C11.7371 9.16134 11.4986 9.06256 11.25 9.06256H6.92266L4.93594 3.18131L16.8703 9.99147L4.93672 16.8173Z" fill="white"/>
</svg>
