<svg width="16" height="16" viewBox="0 0 16 16" fill="none" xmlns="http://www.w3.org/2000/svg">
<path d="M9.52561 5.535L3.92561 11.035C3.78536 11.1728 3.5966 11.25 3.39998 11.25C3.20337 11.25 3.01461 11.1728 2.87436 11.035L0.474358 8.67812C0.40406 8.6091 0.348046 8.5269 0.309514 8.43623C0.270982 8.34555 0.250687 8.24818 0.249787 8.14966C0.24797 7.9507 0.325266 7.75916 0.464671 7.61719C0.533697 7.54689 0.615893 7.49087 0.706567 7.45234C0.797241 7.41381 0.894616 7.39351 0.993133 7.39261C1.1921 7.3908 1.38363 7.46809 1.52561 7.6075L3.40061 9.44875L8.47498 4.465C8.61687 4.32559 8.80833 4.24826 9.00724 4.25002C9.20614 4.25178 9.3962 4.33248 9.53561 4.47437C9.67501 4.61626 9.75234 4.80772 9.75058 5.00663C9.74883 5.20553 9.66812 5.39559 9.52623 5.535H9.52561ZM15.535 4.4725C15.4659 4.40196 15.3836 4.34575 15.2928 4.30709C15.202 4.26843 15.1044 4.24808 15.0057 4.24721C14.907 4.24634 14.8091 4.26496 14.7176 4.30201C14.6261 4.33906 14.5428 4.39381 14.4725 4.46312L9.39998 9.44875L8.90748 8.965C8.76559 8.82559 8.57414 8.74826 8.37523 8.75002C8.17632 8.75178 7.98626 8.83248 7.84686 8.97437C7.70746 9.11626 7.63013 9.30772 7.63188 9.50663C7.63364 9.70553 7.71434 9.89559 7.85623 10.035L8.87436 11.035C9.01461 11.1728 9.20337 11.25 9.39998 11.25C9.5966 11.25 9.78536 11.1728 9.92561 11.035L15.5256 5.535C15.5959 5.46597 15.6518 5.38378 15.6903 5.29313C15.7288 5.20247 15.7491 5.10511 15.75 5.00663C15.7508 4.90814 15.7323 4.81044 15.6954 4.71912C15.6585 4.62779 15.604 4.54463 15.535 4.47437V4.4725Z" fill="white"/>
</svg>
