<svg width="16" height="16" viewBox="0 0 16 16" fill="none" xmlns="http://www.w3.org/2000/svg">
<path d="M9.52561 5.53501L3.92561 11.035C3.78536 11.1728 3.5966 11.25 3.39998 11.25C3.20337 11.25 3.01461 11.1728 2.87436 11.035L0.474358 8.67814C0.40406 8.60911 0.348046 8.52692 0.309514 8.43624C0.270982 8.34557 0.250687 8.24819 0.249787 8.14968C0.24797 7.95071 0.325266 7.75917 0.464671 7.6172C0.533697 7.5469 0.615893 7.49089 0.706567 7.45236C0.797241 7.41382 0.894616 7.39353 0.993133 7.39263C1.1921 7.39081 1.38363 7.46811 1.52561 7.60751L3.40061 9.44876L8.47498 4.46501C8.61687 4.32561 8.80833 4.24828 9.00724 4.25004C9.20614 4.2518 9.3962 4.3325 9.53561 4.47439C9.67501 4.61628 9.75234 4.80774 9.75058 5.00664C9.74883 5.20555 9.66812 5.39561 9.52623 5.53501H9.52561ZM15.535 4.47251C15.4659 4.40197 15.3836 4.34576 15.2928 4.3071C15.202 4.26844 15.1044 4.24809 15.0057 4.24722C14.907 4.24635 14.8091 4.26498 14.7176 4.30203C14.6261 4.33908 14.5428 4.39383 14.4725 4.46314L9.39998 9.44876L8.90748 8.96501C8.76559 8.82561 8.57414 8.74828 8.37523 8.75004C8.17632 8.7518 7.98626 8.8325 7.84686 8.97439C7.70746 9.11628 7.63013 9.30774 7.63188 9.50664C7.63364 9.70555 7.71434 9.89561 7.85623 10.035L8.87436 11.035C9.01461 11.1728 9.20337 11.25 9.39998 11.25C9.5966 11.25 9.78536 11.1728 9.92561 11.035L15.5256 5.53501C15.5959 5.46599 15.6518 5.3838 15.6903 5.29314C15.7288 5.20248 15.7491 5.10513 15.75 5.00664C15.7508 4.90815 15.7323 4.81046 15.6954 4.71913C15.6585 4.62781 15.604 4.54464 15.535 4.47439V4.47251Z" fill="#D4D4D8"/>
</svg>
