<svg width="12" height="12" viewBox="0 0 12 12" fill="none" xmlns="http://www.w3.org/2000/svg">
<path d="M7.14415 4.15124L2.94415 8.27624C2.83896 8.37959 2.69739 8.4375 2.54993 8.4375C2.40246 8.4375 2.2609 8.37959 2.15571 8.27624L0.355708 6.50859C0.302984 6.45682 0.260973 6.39517 0.232074 6.32717C0.203175 6.25916 0.187954 6.18613 0.187279 6.11224C0.185917 5.96302 0.243889 5.81937 0.348442 5.71288C0.400212 5.66016 0.461859 5.61815 0.529864 5.58925C0.59787 5.56035 0.670901 5.54513 0.744789 5.54446C0.894012 5.54309 1.03766 5.60107 1.14415 5.70562L2.5504 7.08656L6.35618 3.34874C6.46259 3.24419 6.60619 3.18619 6.75537 3.18751C6.90455 3.18883 7.04709 3.24936 7.15165 3.35578C7.2562 3.46219 7.31419 3.60579 7.31288 3.75497C7.31156 3.90415 7.25103 4.04669 7.14461 4.15124H7.14415ZM11.6512 3.35437C11.5994 3.30147 11.5377 3.25931 11.4695 3.23031C11.4014 3.20132 11.3282 3.18605 11.2542 3.1854C11.1802 3.18475 11.1067 3.19872 11.0381 3.2265C10.9695 3.25429 10.907 3.29536 10.8543 3.34734L7.04993 7.08656L6.68055 6.72374C6.57413 6.61919 6.43054 6.56119 6.28136 6.56251C6.13218 6.56383 5.98964 6.62436 5.88508 6.73078C5.78053 6.83719 5.72253 6.98079 5.72385 7.12997C5.72517 7.27915 5.7857 7.42169 5.89211 7.52624L6.65571 8.27624C6.7609 8.37959 6.90246 8.4375 7.04993 8.4375C7.19739 8.4375 7.33896 8.37959 7.44414 8.27624L11.6441 4.15124C11.6968 4.09947 11.7388 4.03783 11.7677 3.96984C11.7966 3.90185 11.8118 3.82883 11.8124 3.75497C11.8131 3.6811 11.7992 3.60783 11.7715 3.53933C11.7438 3.47084 11.7029 3.40847 11.6512 3.35578V3.35437Z" fill="#D4D4D8"/>
</svg>
