<svg width="18" height="18" viewBox="0 0 18 18" fill="none" xmlns="http://www.w3.org/2000/svg">
<path d="M6.19019 5.52544V6.53181L4.85651 6.68313V5.54035C4.85937 5.12217 4.92692 4.71863 5.04981 4.33898C5.05591 4.29911 5.06605 4.25959 5.08043 4.2209C5.50215 3.03821 6.44909 2.13532 7.61826 1.73177C8.04914 1.58171 8.51249 1.5 8.99473 1.5C8.99649 1.5 8.99824 1.5 9 1.5C9.00176 1.5 9.00351 1.5 9.00527 1.5C9.48751 1.5 9.95086 1.58171 10.3817 1.73176C11.5509 2.13531 12.4978 3.03821 12.9196 4.2209C12.934 4.25959 12.9441 4.29911 12.9502 4.33898C13.0731 4.71863 13.1406 5.12217 13.1435 5.54035V6.68313L11.8098 6.53181V5.52544C11.8083 5.22667 11.757 4.93881 11.6636 4.66941C11.6604 4.66188 11.6574 4.65426 11.6545 4.64656C11.6324 4.58386 11.6081 4.52235 11.5818 4.46209C11.1517 3.49241 10.1592 2.80846 9 2.80456C7.8408 2.80846 6.84824 3.49243 6.41818 4.46213C6.39184 4.52238 6.36759 4.58388 6.34553 4.64656C6.34262 4.65426 6.33958 4.66187 6.33642 4.66941C6.24297 4.93881 6.19171 5.22667 6.19019 5.52544Z" fill="white"/>
<path d="M12.1734 6.5333C13.9415 6.5333 15.375 7.93549 15.375 9.66494V13.3684C15.375 15.0978 13.9415 16.5 12.1734 16.5H5.8266C4.05852 16.5 2.625 15.0978 2.625 13.3684V9.66494C2.625 7.93549 4.05852 6.5333 5.8266 6.5333H12.1734ZM8.99619 10.0369C8.63038 10.0369 8.33316 10.3277 8.33316 10.6855V12.3404C8.33316 12.7056 8.63038 12.9964 8.99619 12.9964C9.36962 12.9964 9.66684 12.7056 9.66684 12.3404V10.6855C9.66684 10.3277 9.36962 10.0369 8.99619 10.0369Z" fill="white"/>
</svg>
