<svg width="12" height="12" viewBox="0 0 12 12" fill="none" xmlns="http://www.w3.org/2000/svg">
<path d="M7.14439 4.15129L2.94439 8.27629C2.8392 8.37964 2.69763 8.43755 2.55017 8.43755C2.40271 8.43755 2.26114 8.37964 2.15595 8.27629L0.355952 6.50863C0.303228 6.45686 0.261217 6.39522 0.232318 6.32721C0.20342 6.25921 0.188198 6.18618 0.187523 6.11229C0.186161 5.96306 0.244133 5.81941 0.348686 5.71293C0.400456 5.66021 0.462103 5.6182 0.530108 5.5893C0.598114 5.5604 0.671145 5.54518 0.745033 5.5445C0.894256 5.54314 1.03791 5.60111 1.14439 5.70567L2.55064 7.0866L6.35642 3.34879C6.46284 3.24424 6.60643 3.18624 6.75561 3.18756C6.90479 3.18888 7.04734 3.2494 7.15189 3.35582C7.25644 3.46224 7.31444 3.60583 7.31312 3.75501C7.3118 3.90419 7.25128 4.04674 7.14486 4.15129H7.14439ZM11.6514 3.35441C11.5996 3.30151 11.5379 3.25935 11.4698 3.23036C11.4017 3.20136 11.3285 3.1861 11.2544 3.18545C11.1804 3.18479 11.107 3.19876 11.0384 3.22655C10.9697 3.25434 10.9073 3.2954 10.8545 3.34738L7.05017 7.0866L6.6808 6.72379C6.57438 6.61924 6.43078 6.56124 6.2816 6.56256C6.13243 6.56388 5.98988 6.6244 5.88533 6.73082C5.78077 6.83724 5.72278 6.98083 5.7241 7.13001C5.72541 7.27919 5.78594 7.42174 5.89236 7.52629L6.65595 8.27629C6.76114 8.37964 6.90271 8.43755 7.05017 8.43755C7.19763 8.43755 7.3392 8.37964 7.44439 8.27629L11.6444 4.15129C11.6971 4.09952 11.7391 4.03788 11.7679 3.96989C11.7968 3.90189 11.812 3.82888 11.8127 3.75501C11.8133 3.68115 11.7994 3.60787 11.7717 3.53938C11.7441 3.47089 11.7032 3.40851 11.6514 3.35582V3.35441Z" fill="#D4D4D8"/>
</svg>
