<svg width="12" height="12" viewBox="0 0 12 12" fill="none" xmlns="http://www.w3.org/2000/svg">
<path d="M7.14439 4.15117L2.94439 8.27617C2.8392 8.37952 2.69763 8.43742 2.55017 8.43742C2.40271 8.43742 2.26114 8.37952 2.15595 8.27617L0.355952 6.50851C0.303228 6.45674 0.261217 6.39509 0.232318 6.32709C0.20342 6.25908 0.188198 6.18605 0.187523 6.11217C0.186161 5.96294 0.244133 5.81929 0.348686 5.71281C0.400456 5.66008 0.462103 5.61807 0.530108 5.58918C0.598114 5.56028 0.671145 5.54505 0.745033 5.54438C0.894256 5.54302 1.03791 5.60099 1.14439 5.70554L2.55064 7.08648L6.35642 3.34867C6.46284 3.24411 6.60643 3.18612 6.75561 3.18744C6.90479 3.18876 7.04734 3.24928 7.15189 3.3557C7.25644 3.46212 7.31444 3.60571 7.31312 3.75489C7.3118 3.90407 7.25128 4.04661 7.14486 4.15117H7.14439ZM11.6514 3.35429C11.5996 3.30139 11.5379 3.25923 11.4698 3.23024C11.4017 3.20124 11.3285 3.18598 11.2544 3.18532C11.1804 3.18467 11.107 3.19864 11.0384 3.22643C10.9697 3.25422 10.9073 3.29528 10.8545 3.34726L7.05017 7.08648L6.6808 6.72367C6.57438 6.61911 6.43078 6.56112 6.2816 6.56244C6.13243 6.56376 5.98988 6.62428 5.88533 6.7307C5.78077 6.83712 5.72278 6.98071 5.7241 7.12989C5.72541 7.27907 5.78594 7.42161 5.89236 7.52617L6.65595 8.27617C6.76114 8.37952 6.90271 8.43742 7.05017 8.43742C7.19763 8.43742 7.3392 8.37952 7.44439 8.27617L11.6444 4.15117C11.6971 4.0994 11.7391 4.03776 11.7679 3.96976C11.7968 3.90177 11.812 3.82876 11.8127 3.75489C11.8133 3.68102 11.7994 3.60775 11.7717 3.53926C11.7441 3.47077 11.7032 3.40839 11.6514 3.3557V3.35429Z" fill="#D4D4D8"/>
</svg>
