<svg width="204" height="46" viewBox="0 0 204 46" fill="none" xmlns="http://www.w3.org/2000/svg">
<path d="M172.837 0H166.211V22.7766H172.837V0Z" fill="#6E83F5"/>
<path d="M172.837 22.7766H166.211V45.5532H172.837V22.7766Z" fill="#6E83F5"/>
<path d="M196.235 0H189.609V22.7766H196.235V0Z" fill="#33E2BD"/>
<path d="M158.447 8.07545V14.7012L178.48 14.7012V8.07545H158.447Z" fill="#BD6BEE"/>
<path d="M181.223 8.07595V14.7017L204 14.7017V8.07595L181.223 8.07595Z" fill="#33E2BD"/>
<path d="M196.235 25.498H189.609V45.5309H196.235V25.498Z" fill="#BD6BEE"/>
<path d="M158.447 30.8523V37.478H181.223V30.8523H158.447Z" fill="#6E83F5"/>
<path d="M181.223 30.8523V37.478H204V30.8523H181.223Z" fill="#6E83F5"/>
<path d="M126.32 31.6923V28.5006H128.867C129.417 28.5006 129.896 28.5506 130.306 28.6505C129.776 28.161 129.512 27.5066 129.512 26.6875C129.512 25.1591 130.031 23.9253 131.07 22.9863C132.139 22.0173 133.582 21.5328 135.4 21.5328C137.348 21.5328 138.807 22.1422 139.776 23.3609C140.625 24.4398 141.05 25.9183 141.05 27.7963V28.5006H144.151V28.126C144.151 24.9293 143.467 22.5767 142.099 21.0683C140.7 19.5398 138.487 18.7756 135.46 18.7756C133.333 18.7756 131.145 19.1453 128.897 19.8845L128.523 16.9925C130.99 16.1933 133.467 15.7937 135.955 15.7937C143.997 15.7937 148.017 19.9994 148.017 28.4107V31.6923H126.32ZM137.738 27.7364C137.738 25.2989 136.869 24.0802 135.131 24.0802C133.592 24.0802 132.823 24.7844 132.823 26.193C132.823 27.8113 133.787 28.6205 135.715 28.6205H137.738V27.7364Z" fill="white"/>
<path d="M117.629 28.5007H126.665V31.6924H117.629V28.5007Z" fill="white"/>
<path d="M108.938 28.5007H117.974V31.6924H108.938V28.5007Z" fill="white"/>
<path d="M102.285 10.0547H106.331V28.5007H109.402V31.6924H102.285V10.0547Z" fill="white"/>
<path d="M72.1355 38.7502C66.8609 38.7502 64.2236 35.8431 64.2236 30.0291C64.2236 28.1511 64.4684 26.3229 64.9579 24.5448L69.1386 23.7806C68.5592 25.8185 68.2695 27.7814 68.2695 29.6695C68.2695 33.6154 69.673 35.5884 72.4801 35.5884C75.0375 35.5884 76.3162 33.6554 76.3162 29.7894V19.1054H80.362V24.7845C80.362 26.223 80.5368 27.242 80.8865 27.8414C81.2361 28.4408 81.8205 28.7405 82.6397 28.7405C84.1881 28.7405 84.9623 27.4318 84.9623 24.8145V17.8766H88.8283V25.5787C88.8283 26.7675 89.088 27.5567 89.6075 27.9463C90.087 28.3159 91.046 28.5007 92.4845 28.5007H93.2787C93.4286 27.0722 93.5035 25.8434 93.5035 24.8145C93.5035 21.9874 93.2038 19.2452 92.6044 16.588L96.5753 16.0485C97.2247 18.7957 97.5493 21.6278 97.5493 24.5448C97.5493 26.8924 97.3945 29.2749 97.0848 31.6924H92.02C88.8932 31.6924 86.9952 30.9881 86.3259 29.5796C85.6865 31.108 84.4079 31.8722 82.4898 31.8722C81.391 31.8722 80.6218 31.5576 80.1822 30.9282C80.1922 33.6054 79.398 35.6234 77.7997 36.982C76.4111 38.1608 74.523 38.7502 72.1355 38.7502ZM86.7754 10.5792C86.256 10.5792 85.8164 10.3894 85.4568 10.0097C85.0872 9.64012 84.9023 9.18559 84.9023 8.64614C84.9023 8.1067 85.0872 7.65217 85.4568 7.28255C85.8164 6.90294 86.256 6.71313 86.7754 6.71313C87.3149 6.71313 87.7694 6.90294 88.139 7.28255C88.4986 7.65217 88.6785 8.1067 88.6785 8.64614C88.6785 9.18559 88.4986 9.64012 88.139 10.0097C87.7694 10.3894 87.3149 10.5792 86.7754 10.5792ZM89.3528 14.9397C88.7734 14.9397 88.2889 14.7349 87.8993 14.3253C87.4997 13.9257 87.2999 13.4362 87.2999 12.8568C87.2999 12.2774 87.4997 11.7829 87.8993 11.3733C88.2889 10.9638 88.7734 10.759 89.3528 10.759C89.9222 10.759 90.4017 10.9638 90.7913 11.3733C91.1809 11.7729 91.3757 12.2674 91.3757 12.8568C91.3757 13.4262 91.1809 13.9157 90.7913 14.3253C90.4017 14.7349 89.9222 14.9397 89.3528 14.9397ZM84.258 14.9397C83.6986 14.9397 83.2191 14.7349 82.8195 14.3253C82.4299 13.9257 82.2351 13.4362 82.2351 12.8568C82.2351 12.2774 82.4299 11.7829 82.8195 11.3733C83.2191 10.9638 83.6986 10.759 84.258 10.759C84.8274 10.759 85.3069 10.9638 85.6965 11.3733C86.0961 11.7729 86.2959 12.2674 86.2959 12.8568C86.2959 13.4262 86.0961 13.9157 85.6965 14.3253C85.3069 14.7349 84.8274 14.9397 84.258 14.9397Z" fill="white"/>
<path d="M46.1826 28.5006H50.4832V17.2622H54.529V31.6924H46.1826V28.5006ZM50.2285 38.4204C49.649 38.4204 49.1496 38.2156 48.73 37.8061C48.3204 37.3965 48.1156 36.892 48.1156 36.2926C48.1156 35.7132 48.3204 35.2137 48.73 34.7942C49.1496 34.3846 49.649 34.1798 50.2285 34.1798C50.8178 34.1798 51.3173 34.3846 51.7269 34.7942C52.1465 35.2037 52.3563 35.7032 52.3563 36.2926C52.3563 36.882 52.1465 37.3815 51.7269 37.7911C51.3173 38.2106 50.8178 38.4204 50.2285 38.4204Z" fill="white"/>
<path d="M35.7231 28.5007H39.5292V10.0547H43.5751V28.5007H46.6469V31.6924H35.7231V28.5007Z" fill="white"/>
<path d="M27.7964 31.6925C24.6696 31.6925 22.7716 30.9882 22.1022 29.5797C21.4629 31.1081 20.1842 31.8723 18.2662 31.8723C17.1673 31.8723 16.3981 31.5576 15.9586 30.9283C15.9686 33.6055 15.1744 35.6234 13.576 36.982C12.1875 38.1608 10.2994 38.7502 7.91186 38.7502C2.63729 38.7502 0 35.8432 0 30.0292C0 28.1511 0.244748 26.323 0.734244 24.5448L4.91494 23.7806C4.33554 25.8185 4.04584 27.7815 4.04584 29.6696C4.04584 33.6155 5.44939 35.5885 8.2565 35.5885C10.8139 35.5885 12.0926 33.6555 12.0926 29.7894V19.1054H16.1384V24.7846C16.1384 26.2231 16.3132 27.2421 16.6628 27.8414C17.0125 28.4408 17.5969 28.7405 18.416 28.7405C19.9644 28.7405 20.7387 27.4319 20.7387 24.8146V17.8767H24.6047V25.5788C24.6047 26.7675 24.8644 27.5567 25.3839 27.9463C25.8634 28.316 26.8224 28.5008 28.2609 28.5008H29.0551C29.2049 27.0722 29.2799 25.8435 29.2799 24.8146C29.2799 21.9875 28.9802 19.2453 28.3808 16.588L32.3517 16.0486C33.001 18.7958 33.3257 21.6278 33.3257 24.5448C33.3257 25.6837 33.2757 27.0023 33.1758 28.5008H36.1877V31.6925H27.7964Z" fill="white"/>
</svg>
