<svg width="32" height="32" viewBox="0 0 32 32" fill="none" xmlns="http://www.w3.org/2000/svg">
<path d="M16 18.4667C15.8266 18.4667 15.6533 18.4267 15.5066 18.3334C15.0266 18.0534 14.8666 17.44 15.1333 16.9734L16.2666 15H15.1466C14.48 15 13.9333 14.7067 13.64 14.2134C13.3466 13.7067 13.3733 13.0934 13.7066 12.5067L15.1333 10.0267C15.4133 9.5467 16.0266 9.3867 16.4933 9.65336C16.9733 9.93336 17.1333 10.5467 16.8666 11.0134L15.7333 13H16.8533C17.52 13 18.0666 13.2934 18.36 13.7867C18.6533 14.2934 18.6266 14.9067 18.2933 15.4934L16.8666 17.9734C16.68 18.2934 16.3466 18.4667 16 18.4667Z" fill="white"/>
<path d="M19.6932 26.3333H12.3465C11.7598 26.3333 11.0132 26.2666 10.5198 25.76C10.0398 25.2666 10.0532 24.6533 10.0665 24.24V23.0533C6.7065 20.8133 4.49316 16.92 4.49316 13.2133C4.49316 9.70665 6.0665 6.42665 8.79983 4.22665C11.5332 2.02665 15.1198 1.19998 18.6265 1.97331C21.9598 2.70665 24.8398 4.93331 26.3332 7.93331C29.2265 13.76 26.4398 20.0666 21.9865 23.0666V24.0666C21.9998 24.4533 22.0132 25.16 21.4665 25.72C21.0532 26.12 20.4665 26.3333 19.6932 26.3333ZM12.0532 24.32C12.1198 24.32 12.2132 24.3333 12.3332 24.3333H19.6932C19.8265 24.3333 19.9198 24.32 19.9732 24.3066C19.9732 24.2666 19.9732 24.2133 19.9732 24.1733V22.4933C19.9732 22.1466 20.1598 21.8133 20.4532 21.64C24.3998 19.2533 27.0132 13.8 24.5198 8.79998C23.2932 6.33331 20.9198 4.50665 18.1732 3.90665C15.2665 3.26665 12.2932 3.94665 10.0265 5.77331C7.75983 7.59998 6.4665 10.3066 6.4665 13.2133C6.4665 16.92 9.0265 20.12 11.5598 21.6533C11.8665 21.84 12.0398 22.16 12.0398 22.5066V24.3066C12.0532 24.3066 12.0532 24.3066 12.0532 24.32Z" fill="white"/>
<path d="M20.6668 30.3333C20.5735 30.3333 20.4802 30.3199 20.3868 30.2933C17.5068 29.4666 14.4802 29.4666 11.6002 30.2933C11.0668 30.4399 10.5202 30.1333 10.3602 29.5999C10.2002 29.0666 10.5202 28.5199 11.0535 28.3599C14.2802 27.4399 17.7068 27.4399 20.9335 28.3599C21.4668 28.5066 21.7735 29.0666 21.6268 29.5999C21.5068 30.0533 21.1068 30.3333 20.6668 30.3333Z" fill="white"/>
</svg>
