<svg width="99" height="89" viewBox="0 0 99 89" fill="none" xmlns="http://www.w3.org/2000/svg">
<g clip-path="url(#clip0_13_1336)">
<path d="M34.6014 34.3805C34.6014 34.3805 26.9685 28.4606 32.0425 16.5716C37.3103 4.22789 27.8256 -0.631939 20.8459 1.36102C12.0746 3.86528 15.3878 12.6822 16.009 14.029C17.3104 16.85 22.2408 18.0968 22.9922 15.9444C24.042 12.9408 20.6679 16.2703 19.8377 13.5027C18.9482 10.5389 20.0067 8.27233 24.1698 8.1802C25.7901 8.14461 27.9961 10.4033 25.8839 19.0205C23.3851 29.2139 18.0512 43.7352 31.2329 49.7916C31.2333 49.7908 35.411 48.3435 34.6014 34.3805Z" fill="#FF7FB6"/>
<path d="M28.6038 24.6201C32.9564 9.7255 29.9227 6.43039 27.6807 4.18949C25.4387 1.9486 16.9969 2.60778 16.9969 10.648C16.9969 15.3536 18.742 16.6712 20.1894 16.9567C20.3671 16.9879 20.5416 17.0093 20.7121 17.0212C21.496 17.0587 22.0923 16.8432 22.0923 16.8432C22.5184 16.6704 22.8405 16.3774 22.9917 15.9444C24.0415 12.9407 20.6674 16.2702 19.8372 13.5026C18.9477 10.5389 20.0062 8.2723 24.1693 8.18016C25.7896 8.14457 27.9956 10.4033 25.8834 19.0205C23.3846 29.2138 18.0507 43.7352 31.2324 49.7915C31.2324 49.7915 33.9793 48.8386 34.5867 41.0332C30.8232 39.7117 25.3631 35.7107 28.6038 24.6201Z" fill="#F272A8"/>
<path opacity="0.45" d="M26.5272 23.3026C28.1175 17.5416 30.0841 13.082 29.4486 10.1095C28.6129 6.20072 25.223 4.86259 21.287 6.51825C15.6753 8.87897 18.2517 17.531 23.0791 14.7076C23.1792 14.6491 23.0791 15.1924 23.1796 15.2205C23.3882 13.5498 20.5843 15.9919 19.8376 13.5019C18.9481 10.5382 20.0066 8.27159 24.1697 8.17945C25.79 8.14386 27.9964 10.4026 25.8838 19.0197C25.1704 21.9297 24.2274 25.1928 23.5488 28.5104C23.1397 32.4276 22.8002 36.6262 23.1282 40.2377C24.0173 44.1485 26.3555 47.5496 31.2328 49.7905C31.2328 49.7905 31.7824 49.5963 32.444 48.6888C32.6039 48.0158 32.7083 47.0197 32.7083 45.5534C32.7079 45.5534 21.9546 39.8652 26.5272 23.3026Z" fill="#780074"/>
<path d="M24.171 70.7116C9.64985 71.9358 11.5223 50.9638 15.7716 41.2232C19.0139 33.7927 11.7917 36.1095 11.7917 36.1095C1.86301 40.6111 9.82356 49.5276 9.82356 54.8608C9.82356 57.2092 7.02404 55.5599 7.02404 55.5599C-2.94822 49.6154 -4.43563 24.614 16.821 24.614C32.8034 24.614 29.5489 39.6933 22.7698 46.4686C18.9997 50.2362 28.2359 54.319 31.2325 48.9515C32.8834 45.9945 34.8337 40.2548 33.7919 32.1319C30.9971 10.3505 47.2585 3.56099 49.8875 2.23511C47.4698 3.79389 68.5254 -7.99899 80.8544 10.8021C95.9509 33.8248 67.9445 40.2774 70.3424 50.1042C77.0055 77.4145 38.1663 68.6735 26.0945 67.4489" fill="#F272A8"/>
<path opacity="0.45" d="M18.6578 58.4445C15.9125 52.5095 15.7977 46.8584 21.0236 40.3224C26.2353 33.8037 18.3389 29.9997 14.3257 30.904C-0.745013 34.2988 2.71453 47.2032 5.9145 51.7728C8.49679 55.4598 9.31944 55.8746 9.58178 55.7686C9.73017 55.5721 9.82316 55.2826 9.82316 54.8607C9.82316 49.5275 1.8626 40.611 11.7913 36.1095C11.7913 36.1095 19.0135 33.7926 15.7716 41.2231C11.5219 50.9637 9.64984 71.9357 24.171 70.7115L26.0941 70.0713C27.7267 70.2366 28.8216 67.9178 31.2883 68.2503C32.8735 63.2466 34.8579 61.7894 34.8579 61.7894C34.8579 61.7894 21.9765 65.6183 18.6578 58.4445Z" fill="#780074"/>
<path d="M72.1068 68.1482C86.8028 66.4001 97.5898 73.7036 86.8028 75.6661C86.8028 75.6661 83.2159 78.3764 89.5145 78.3764C98.3499 78.3764 113.396 58.8822 66.3336 56.7844" fill="#FF7FB6"/>
<path opacity="0.45" d="M77.7924 63.3888C77.7924 63.3888 72.1419 61.8079 67.811 62.8084L72.1067 68.1482C86.8027 66.4 97.5897 73.7036 86.8027 75.6661C90.9148 75.6661 97.6328 73.6392 92.9257 68.9351C88.2185 64.2311 77.7924 63.3888 77.7924 63.3888Z" fill="#780074"/>
<path d="M65.0207 54.9482C65.0207 60.2699 73.3311 68.1484 73.3311 68.1484C88.902 83.7093 67.3442 90.8199 61.9589 88.604C58.9844 87.3805 61.9589 86.1563 61.9589 86.1563C74.6214 84.38 70.5272 75.2582 59.8593 72.8691C49.7122 70.5961 51.8117 60.6305 51.8117 60.6305C51.8117 60.6305 51.4619 55.3856 57.41 52.9375C63.3584 50.4898 65.0207 52.8085 65.0207 54.9482Z" fill="#FF7FB6"/>
<path opacity="0.45" d="M65.9398 58.4768C62.303 57.4855 60.2332 58.4235 62.853 62.1547C62.853 62.1547 62.2175 64.7661 71.3003 70.8605C77.1767 74.967 81.2298 86.6812 64.0718 88.9909H64.0726C71.3802 89.2701 87.3049 82.1124 73.3314 68.1486C73.3314 68.1482 68.0999 63.1852 65.9398 58.4768Z" fill="#780074"/>
<path opacity="0.23" d="M68.6517 14.2549C71.7678 14.2549 74.2939 12.4349 74.2939 10.1898C74.2939 7.9448 71.7678 6.12483 68.6517 6.12483C65.5356 6.12483 63.0095 7.9448 63.0095 10.1898C63.0095 12.4349 65.5356 14.2549 68.6517 14.2549Z" fill="#C71870"/>
<path opacity="0.16" d="M52.6698 12.2147C54.2434 11.7877 55.2695 10.5226 54.9615 9.38902C54.6535 8.25542 53.1282 7.68258 51.5545 8.10954C49.9809 8.5365 48.9549 9.80158 49.2628 10.9352C49.5708 12.0688 51.0962 12.6416 52.6698 12.2147Z" fill="#C71870"/>
<path opacity="0.26" d="M78.6191 21.4669C80.8305 21.4669 82.6231 20.1754 82.6231 18.5822C82.6231 16.9891 80.8305 15.6975 78.6191 15.6975C76.4078 15.6975 74.6151 16.9891 74.6151 18.5822C74.6151 20.1754 76.4078 21.4669 78.6191 21.4669Z" fill="#C71870"/>
<path opacity="0.2" d="M63.9579 21.9792C64.7953 21.7528 65.3418 21.0802 65.1785 20.4769C65.0152 19.8735 64.204 19.5679 63.3665 19.7942C62.5291 20.0206 61.9826 20.6932 62.1459 21.2965C62.3092 21.8999 63.1205 22.2055 63.9579 21.9792Z" fill="#C71870"/>
<path d="M79.7216 23.4541C79.7216 35.3308 69.0502 38.0763 59.9445 44.9591C51.8787 51.0554 61.1806 61.3603 49.2647 66.8936C47.8976 67.5282 33.2866 67.7255 29.3816 61.3603C27.7272 58.6635 37.2622 60.087 37.2622 44.3917C37.2622 36.2439 35.6066 28.5417 36.6615 23.4545C39.0578 11.8965 49.0222 1.94948 59.9445 1.94948C70.8672 1.94909 79.7216 11.577 79.7216 23.4541Z" fill="#FF7FB6"/>
<path opacity="0.16" d="M43.3941 36.4223C46.9809 38.2427 51.5691 36.4113 53.6422 32.332C55.7153 28.2526 54.4882 23.4699 50.9014 21.6496C47.3146 19.8293 42.7264 21.6606 40.6533 25.74C38.5802 29.8194 39.8073 34.602 43.3941 36.4223Z" fill="#8F0000"/>
<path d="M43.4321 34.6174C47.1352 36.4968 51.7235 34.8989 53.6802 31.0484C55.637 27.198 54.2213 22.553 50.5181 20.6736C46.815 18.7942 42.2267 20.3921 40.27 24.2426C38.3132 28.0931 39.7289 32.7381 43.4321 34.6174Z" fill="white" stroke="#B2B2B2" stroke-width="1.00044"/>
<path d="M50.4997 20.6596C46.7992 18.7813 42.2123 20.3776 40.2564 24.2263C38.3005 28.0747 39.7151 32.7182 43.416 34.5969C47.1173 36.4755 51.7042 34.8788 53.6601 31.0301C55.616 27.1818 54.2014 22.5387 50.4997 20.6596ZM43.7788 31.8202C40.8669 30.3421 39.7542 26.6891 41.2927 23.6621C42.8319 20.6347 46.4403 19.3784 49.3518 20.8561C52.2629 22.3338 53.3764 25.9872 51.8371 29.0146C50.2987 32.0416 46.6907 33.2983 43.7788 31.8202Z" fill="#F7F7F7"/>
<path opacity="0.16" d="M56.9394 40.2354C61.0224 42.3076 66.2455 40.2229 68.6053 35.5792C70.9652 30.9355 69.5683 25.4911 65.4852 23.419C61.4021 21.3468 56.1791 23.4314 53.8192 28.0751C51.4594 32.7188 52.8563 38.1632 56.9394 40.2354Z" fill="#8F0000"/>
<path d="M56.9824 38.1805C61.1979 40.3199 66.4209 38.5008 68.6484 34.1176C70.8759 29.7343 69.2644 24.4466 65.049 22.3073C60.8335 20.1679 55.6105 21.9869 53.383 26.3702C51.1555 30.7535 52.767 36.0411 56.9824 38.1805Z" fill="white" stroke="#B2B2B2" stroke-width="1.00044"/>
<path d="M65.0255 22.2907C60.8129 20.1522 55.5914 21.9696 53.3648 26.3506C51.1382 30.7315 52.7487 36.0172 56.9616 38.1557C61.175 40.2942 66.3965 38.4768 68.6231 34.0954C70.8497 29.7153 69.2388 24.4296 65.0255 22.2907ZM57.3743 34.9951C54.0596 33.3125 52.793 29.1542 54.5444 25.7084C56.2965 22.2618 60.4042 20.8316 63.7189 22.5141C67.0328 24.1963 68.3002 28.355 66.5481 31.8012C64.7968 35.2473 60.6891 36.6776 57.3743 34.9951Z" fill="#F7F7F7"/>
<path d="M59.3388 31.5132C60.9429 31.5132 62.2432 30.2137 62.2432 28.6108C62.2432 27.0078 60.9429 25.7083 59.3388 25.7083C57.7348 25.7083 56.4344 27.0078 56.4344 28.6108C56.4344 30.2137 57.7348 31.5132 59.3388 31.5132Z" fill="black"/>
<path d="M44.2097 29.297C45.5757 29.297 46.6832 28.1903 46.6832 26.8251C46.6832 25.46 45.5757 24.3533 44.2097 24.3533C42.8436 24.3533 41.7362 25.46 41.7362 26.8251C41.7362 28.1903 42.8436 29.297 44.2097 29.297Z" fill="black"/>
<path d="M58.1553 28.6133C58.6931 28.6133 59.1291 28.1776 59.1291 27.6401C59.1291 27.1027 58.6931 26.667 58.1553 26.667C57.6175 26.667 57.1815 27.1027 57.1815 27.6401C57.1815 28.1776 57.6175 28.6133 58.1553 28.6133Z" fill="white"/>
<path d="M43.535 26.8256C43.9074 26.8256 44.2092 26.5239 44.2092 26.1518C44.2092 25.7797 43.9074 25.478 43.535 25.478C43.1626 25.478 42.8607 25.7797 42.8607 26.1518C42.8607 26.5239 43.1626 26.8256 43.535 26.8256Z" fill="white"/>
<path d="M68.2899 86.1561C72.5254 84.3798 76.8583 75.2581 66.1904 72.8689C56.0432 70.596 58.1428 60.6304 58.1428 60.6304C58.1428 60.6304 57.793 55.3854 63.7411 52.9373C63.8997 52.8721 64.0537 52.812 64.2064 52.753C63.2061 51.7463 61.1607 51.3936 57.41 52.9373C51.4619 55.3854 51.8117 60.6304 51.8117 60.6304C51.8117 60.6304 49.7122 70.596 59.8593 72.8689C70.5272 75.2581 74.6214 84.3795 61.9589 86.1561C61.9589 86.1561 58.9844 87.3808 61.9589 88.6038C63.2967 89.1543 65.6317 89.1286 68.1483 88.5417C65.42 87.3396 68.2899 86.1561 68.2899 86.1561Z" fill="#F272A8"/>
<path d="M82.4492 58.5505C80.0987 60.7946 79.2524 62.9406 81.3887 63.6421C81.3887 63.6421 93.7596 61.9912 95.4762 68.1167C97.1927 74.2423 90.2645 75.6659 86.803 75.6659C86.803 75.6659 83.216 78.3762 89.5147 78.3762C97.1306 78.3762 109.359 63.8924 82.4492 58.5505Z" fill="#F272A8"/>
<path d="M54.961 58.357C54.961 58.357 81.9037 74.9666 89.6019 54.6855C89.6019 54.6855 92.0509 49.2661 87.8522 40.6991C83.6539 32.1322 91.3513 27.7611 93.9755 32.1322C96.6001 36.5032 96.6876 25.7507 89.2517 23.74C81.8163 21.7292 79.4536 33.8808 81.8163 42.2729C84.179 50.6651 69.4829 52.2382 65.4587 42.6221C61.4341 33.0065 50.0631 38.251 48.7506 44.1085C47.4385 49.9656 49.0117 54.8594 54.961 58.357Z" fill="#FF7FB6"/>
<path d="M95.0933 29.3599C94.1761 27.6366 92.8196 26.4653 90.8269 26.4653C78.1319 26.4653 83.7373 42.517 83.7373 44.2596C83.7373 66.2059 62.172 52.1682 58.8086 44.6551C55.5477 37.3705 50.1952 41.4406 49.8727 41.6949C49.3314 42.4604 48.9373 43.277 48.7513 44.1082C47.4392 49.9657 49.0125 54.8595 54.9617 58.3571C54.9617 58.3571 81.9044 74.9667 89.6027 54.6855C89.6027 54.6855 92.0516 49.2662 87.8529 40.6992C83.6546 32.1322 91.352 27.7612 93.9762 32.1322C95.4589 34.6021 96.1308 32.2422 95.0933 29.3599Z" fill="#F272A8"/>
<path opacity="0.28" d="M16.4474 37.0869C17.623 32.067 11.7912 33.935 11.7912 33.935C7.42436 35.9149 6.51862 38.7489 6.87356 41.7562C7.17349 39.5829 8.49708 37.6034 11.7912 36.1098C11.7912 36.1098 15.6172 34.8852 16.4474 37.0869ZM32.8745 62.2592C32.3578 63.207 31.8022 64.4522 31.2878 66.0754C28.8211 65.7429 27.7262 68.0617 26.0936 67.8964L24.1705 68.5366C15.9436 69.2302 12.9799 62.7993 12.7278 55.3233C12.4596 63.6752 15.1546 71.4715 24.1705 70.7115L26.0936 70.0713C27.7262 70.2365 28.8211 67.9178 31.2878 68.2503C32.873 63.2465 34.8574 61.7894 34.8574 61.7894C34.8574 61.7894 34.085 62.0183 32.8745 62.2592Z" fill="#780074"/>
<path opacity="0.45" d="M89.6019 54.6855C89.6019 54.6855 92.0509 49.2661 87.8522 40.6991C83.6539 32.1322 91.3513 27.7611 93.9755 32.1322C94.4456 32.9159 94.833 33.2073 95.1116 33.1559C94.1967 29.0629 90.8266 28.5476 90.8266 28.5476C81.9037 28.5476 84.2656 38.5136 85.8401 42.9721C87.4146 47.4301 86.8895 50.0526 86.8895 50.0526C82.9725 66.2719 61.2976 59.4935 55.6606 49.0221C52.3851 42.9365 49.9642 43.9606 48.9204 46.0552C48.294 47.3119 48.417 49.2068 48.4392 49.4741C48.92 52.9847 50.9364 55.9912 54.9606 58.357C54.961 58.357 81.9037 74.9666 89.6019 54.6855Z" fill="#780074"/>
<path d="M8.29935 54.8608C8.29935 54.8608 -6.33337 40.4368 8.29935 30.6827C22.9321 20.9287 31.0347 34.4373 23.6859 45.4781L23.6855 45.4785C29.8088 38.3315 32.0651 24.6141 16.821 24.6141C-4.43563 24.6141 -2.94822 49.6155 7.02404 55.5599C7.02404 55.5599 7.78139 56.0052 8.50788 56.1033C8.22694 55.327 8.12327 54.8608 8.29935 54.8608Z" fill="#FF7FB6"/>
<path d="M40.6402 57.8572C40.6402 57.8572 35.6457 56.5665 29.922 59.8141C19.7947 65.5601 22.6045 79.4855 34.1472 83.6051C43.2949 86.8694 55.6797 77.9434 51.4999 67.459C50.4055 64.7135 48.1749 60.329 44.4534 59.0933C44.4534 59.0933 38.6819 56.2098 34.1472 60.7414C34.1472 60.7414 32.0861 63.0068 37.8572 63.0068C43.6284 63.0068 45.8961 73.1001 41.3615 74.9539C36.8269 76.8081 34.353 67.7449 43.6284 67.7449" fill="#FF7FB6"/>
<path opacity="0.45" d="M40.851 57.684C42.9375 57.8133 44.4541 58.6975 44.4541 58.6975C48.1756 61.2077 50.4062 64.7131 51.5006 67.4586C55.6803 77.943 43.2956 86.869 34.1479 83.6048C26.5194 80.8826 22.6404 74.3814 23.8603 68.2926C23.8603 68.2985 23.061 72.6118 25.9136 75.9433C28.7685 79.2776 35.6749 81.6284 42.1864 79.2792C56.4061 74.1481 42.4899 53.8495 34.0945 62.2397C34.0945 62.2397 33.5374 57.684 40.851 57.684Z" fill="#780074"/>
<path d="M34.6714 63.6379C34.6714 63.6379 28.3403 67.5922 30.9123 73.1282C33.4253 78.5369 44.3026 78.9347 43.7573 70.1491C43.8527 72.2777 43.1214 74.2374 41.3622 74.9563C37.2517 76.6369 34.8348 69.3475 41.3262 67.9687C39.2674 62.6766 34.6714 63.6379 34.6714 63.6379ZM43.7062 69.5176L43.7055 69.5168C43.7066 69.5259 43.7074 69.5354 43.7086 69.5445C43.7074 69.5354 43.7074 69.5267 43.7062 69.5176Z" fill="#F272A8"/>
<path d="M65.1451 13.091C66.79 13.091 68.1235 11.7585 68.1235 10.1146C68.1235 8.47083 66.79 7.13825 65.1451 7.13825C63.5002 7.13825 62.1667 8.47083 62.1667 10.1146C62.1667 11.7585 63.5002 13.091 65.1451 13.091Z" fill="#F272A8"/>
<path d="M49.7204 13.3038C50.3666 13.3038 50.8904 12.7803 50.8904 12.1345C50.8904 11.4887 50.3666 10.9652 49.7204 10.9652C49.0741 10.9652 48.5503 11.4887 48.5503 12.1345C48.5503 12.7803 49.0741 13.3038 49.7204 13.3038Z" fill="#F272A8"/>
<path d="M57.0604 17.7682C57.7654 17.7682 58.3369 17.1971 58.3369 16.4926C58.3369 15.788 57.7654 15.2169 57.0604 15.2169C56.3554 15.2169 55.7839 15.788 55.7839 16.4926C55.7839 17.1971 56.3554 17.7682 57.0604 17.7682Z" fill="#F272A8"/>
<path d="M78.4417 21.8079C81.0853 21.8079 83.2284 19.6662 83.2284 17.0244C83.2284 14.3825 81.0853 12.2409 78.4417 12.2409C75.7981 12.2409 73.655 14.3825 73.655 17.0244C73.655 19.6662 75.7981 21.8079 78.4417 21.8079Z" fill="#F272A8"/>
<path d="M35.4145 55.1876C37.7058 55.1876 39.5633 53.3313 39.5633 51.0415C39.5633 48.7517 37.7058 46.8955 35.4145 46.8955C33.1231 46.8955 31.2656 48.7517 31.2656 51.0415C31.2656 53.3313 33.1231 55.1876 35.4145 55.1876Z" fill="#F272A8"/>
<path d="M37.2749 43.7071C38.4499 43.7071 39.4025 42.7551 39.4025 41.5809C39.4025 40.4066 38.4499 39.4546 37.2749 39.4546C36.0998 39.4546 35.1472 40.4066 35.1472 41.5809C35.1472 42.7551 36.0998 43.7071 37.2749 43.7071Z" fill="#F272A8"/>
<path d="M40.8471 18.1933C42.115 18.1933 43.1429 16.7692 43.1429 15.0124C43.1429 13.2557 42.115 11.8316 40.8471 11.8316C39.5791 11.8316 38.5513 13.2557 38.5513 15.0124C38.5513 16.7692 39.5791 18.1933 40.8471 18.1933Z" fill="#F272A8"/>
<g opacity="0.28">
<path d="M90.8262 28.5478C81.9033 28.5478 84.2652 38.5138 85.8397 42.9723C87.1665 46.7292 87.0026 49.1753 86.9184 49.8539C87.0058 49.5779 87.0893 49.2964 87.1633 49.0041C87.1633 49.0041 87.6706 46.5964 86.1491 42.5037C84.6265 38.4102 82.3438 29.2607 90.9691 29.2607C90.9691 29.2607 94.0207 29.7143 95.0154 33.1593C95.0487 33.1621 95.0807 33.1624 95.1112 33.1569C94.1967 29.0634 90.8262 28.5478 90.8262 28.5478ZM56.2996 56.6284C52.4092 54.4567 50.46 51.6958 49.9955 48.4731C49.9737 48.2275 49.8554 46.4876 50.4604 45.3342C50.6404 44.9913 50.8636 44.6805 51.1256 44.4314C50.1427 44.3871 49.3908 45.1111 48.9204 46.0554C48.294 47.3121 48.417 49.207 48.4392 49.4743C48.92 52.9849 50.9364 55.9914 54.9606 58.3572C54.9606 58.3572 81.9033 74.9668 89.6016 54.6857C89.6016 54.6857 90.0906 53.5982 90.2564 51.6325C90.055 52.6879 89.7852 53.2574 89.7852 53.2574C82.3441 71.8777 56.2996 56.6284 56.2996 56.6284Z" fill="#780074"/>
</g>
<g opacity="0.28">
<path d="M23.8603 68.2934C23.8278 68.4547 23.8013 68.6165 23.776 68.7786C23.7791 68.83 23.7827 68.883 23.7867 68.9352C23.8167 68.5326 23.8603 68.295 23.8603 68.2934ZM48.2642 70.6367C48.9076 63.5226 40.553 55.1122 34.5701 60.2223C33.9773 61.2686 34.0945 62.2406 34.0945 62.2406C39.6694 56.6686 47.6762 63.7487 48.2642 70.6367ZM52.305 70.8621C51.7028 78.9609 41.795 84.7527 34.1475 82.0239C30.4311 80.6976 27.6079 78.4733 25.8276 75.8382C24.5298 74.2719 24.0181 72.5047 23.8409 71.0737C23.7586 70.632 23.7008 70.1871 23.6695 69.7407C23.2794 75.3846 27.1208 81.0982 34.1471 83.6056C42.2845 86.5088 52.9821 79.7668 52.305 70.8621Z" fill="#780074"/>
</g>
<path opacity="0.28" d="M73.2138 68.0351C82.1469 67.2343 89.4245 69.7342 90.9024 72.1653C91.6091 69.4171 82.5399 65.7811 71.1063 66.9045L72.1066 68.1486C72.1066 68.1486 83.6411 78.7259 72.9305 86.0061C72.8525 86.0611 72.7714 86.1149 72.6907 86.1687C72.6764 86.1781 72.6626 86.188 72.6483 86.1971C72.4754 86.311 72.2977 86.4237 72.1114 86.5332C72.1098 86.534 72.1086 86.5352 72.107 86.536C70.3406 87.572 67.9507 88.3933 64.8037 88.8841C64.812 88.9205 64.8184 88.9564 64.8322 88.9936C72.4101 88.7844 86.8383 81.6465 73.3313 68.1486C73.3313 68.1486 73.2858 68.1047 73.2138 68.0351Z" fill="#780074"/>
</g>
<defs>
<clipPath id="clip0_13_1336">
<rect width="99" height="89" fill="white"/>
</clipPath>
</defs>
</svg>
